# xmcd
#
# Track frame offsets: 
#        150
#        17287
#        36195
#
# Disc length: 708 seconds
#
# Revision: 1
# Processed by: cddbd v1.5.2PL0 Copyright (c) Steve Scherf et al.
# Submitted via: ExactAudioCopy v1.0b2
#
DISCID=1502c203
DTITLE=田村英里子 - 誘惑のチャチャ
DYEAR=1991
DGENRE=JPop
TTITLE0=誘惑のチャチャ
TTITLE1=東京ヴィーナス
TTITLE2=誘惑のチャチャ（オリジナル・カラオケ）
EXTD=YEAR: 1991
EXTT0=
EXTT1=
EXTT2=
PLAYORDER=
